<?xml version="1.0" encoding="utf-8"?>
<!-- Svg Vector Icons : http://www.onlinewebfonts.com/icon -->
<!DOCTYPE svg PUBLIC "-//W3C//DTD SVG 1.1//EN" "http://www.w3.org/Graphics/SVG/1.1/DTD/svg11.dtd">
<svg version="1.1" xmlns="http://www.w3.org/2000/svg" x="0px" y="0px" viewBox="0 0 1000 1000"
     enable-background="new 0 0 1000 1000" xml:space="preserve" width="100px">
<metadata> Svg Vector Icons : http://www.onlinewebfonts.com/icon </metadata>
    <g><path d="M286.2,606.6C286.2,606.6,286.2,606.6,286.2,606.6c0-0.1,0-0.1,0-0.2C286.2,606.5,286.2,606.6,286.2,606.6z"/>
        <path d="M286.2,607c0,0,0-0.2,0-0.4C286.2,606.7,286.2,606.8,286.2,607L286.2,607z"/>
        <path d="M286.2,605.9c0,0.2,0,0.3,0,0.5C286.2,606.1,286.2,605.8,286.2,605.9z"/>
        <path fill="#ddd"
              d="M542.2,589.8c61.9-46.6,98.6-119.6,98.6-197.1c0-65.9-25.7-127.8-72.2-174.4S460,146,394.1,146c-65.9,0-127.8,25.7-174.4,72.2c-46.6,46.6-72.2,108.5-72.2,174.4c0,40.3,10,80.4,28.9,115.7c16.9,31.6,40.8,59.5,69.5,81.2c-67.6,28.3-125.3,74.9-167.3,135.3C33.7,789.2,10,864.8,10,943.5v4.9h77.6v-4.9c0-0.2,0-0.4,0-0.6c0-154.8,116-285.1,269.8-303.1c1.3-0.1,17.9-1.6,38.2-1.6c14.5,0,27.3,0.7,38.2,2.1l0.4,0.1c0.7,0.1,1.5,0.2,2.2,0.3l0.4,0.1C508.9,651,575.2,687,623.4,742c48.7,55.6,75.5,126.9,75.5,200.9l0-0.1c0,0.2,0,0.4,0,0.6v4.9l76.8,0l1.8-3.8v-1.1c0-78.6-23.6-154.1-68.3-218.3C667.2,664.7,609.6,618.1,542.2,589.8z M394.1,569.1c-97.2,0-176.3-79.1-176.3-176.3c0-97.2,79.1-176.3,176.3-176.3c97.2,0,176.3,79.1,176.3,176.3C570.4,490,491.4,569.1,394.1,569.1z"/>
        <path fill="#ddd"
              d="M967.7,207.4H834.2V73.9c0-12.3-10-22.2-22.3-22.2h-22.2c-12.3,0-22.3,10-22.3,22.2v133.5H634c-12.3,0-22.2,10-22.2,22.3v22.2c0,12.3,10,22.2,22.2,22.2h133.5v133.5c0,12.3,10,22.2,22.3,22.2H812c12.3,0,22.2-10,22.2-22.2V274.2h133.5c12.3,0,22.3-10,22.3-22.2v-22.2C990,217.4,980,207.4,967.7,207.4z"/></g>
</svg>