<?xml version="1.0" encoding="utf-8"?>
<!-- Svg Vector Icons : http://www.onlinewebfonts.com/icon -->
<!DOCTYPE svg PUBLIC "-//W3C//DTD SVG 1.1//EN" "http://www.w3.org/Graphics/SVG/1.1/DTD/svg11.dtd">
<svg version="1.1" xmlns="http://www.w3.org/2000/svg" x="0px" y="0px" viewBox="0 0 1000 1000"
     enable-background="new 0 0 1000 1000" xml:space="preserve">
<metadata> Svg Vector Icons : http://www.onlinewebfonts.com/icon </metadata>
    <g><path fill="#ddd" d="M794.3,409.6c-12-150.4-137-269.1-288.9-269.1c-152.7,0-278.3,118.7-290.5,269.1C99.9,421.6,10,517.8,10,634.3c0,116.5,89.6,215.3,204,225.1c2.3,0.2,4.5,0.1,6.6-0.4h70.8c13.9,0,25.1-11.2,25.1-25.1c0-13.9-11.2-25.1-25.1-25.1h-75.3c-0.8,0-1.6,0-2.4,0.1c-86.5-9.7-153.6-85.5-153.6-174.6c0-96.9,80.2-175.8,178.9-175.8c13.9,0,25.1-11.2,25.1-25.1c0-133.9,108.2-242.7,241.2-242.7c132.1,0,239.7,108.9,239.7,242.7c0,13.9,11.2,25.1,25.1,25.1c95.1,0,169.7,77.2,169.7,175.8c0,94.2-86.5,165.3-168.9,174.6c-0.8-0.1-1.6-0.1-2.4-0.1h-75.3c-13.9,0-25.1,11.2-25.1,25.1c0,13.9,11.2,25.1,25.1,25.1h70.5c1.6,0.3,3.2,0.5,4.8,0.5c0.7,0,1.4,0,2.1-0.1c105.9-9,219.3-101.6,219.3-225.1C990,516,905.8,421.6,794.3,409.6z"/>
        <path fill="#ddd" d="M499,679.4l-82,82V407c0-13.9-11.2-25.1-25.1-25.1c-13.9,0-25.1,11.2-25.1,25.1v347.3l-75-75c-9.8-9.8-25.7-9.8-35.5,0c-9.8,9.8-9.8,25.7,0,35.5l121.4,121.3c4.9,4.9,11.3,7.4,17.8,7.4c6.4,0,12.9-2.5,17.8-7.4l121.4-121.3c9.8-9.8,9.8-25.7,0-35.5C524.7,669.5,508.8,669.5,499,679.4z"/>
        <path fill="#ddd" d="M725.9,560c9.8,9.8,25.7,9.8,35.5,0c9.8-9.8,9.8-25.7,0-35.5L639.6,402.7c-9.8-9.8-25.7-9.8-35.5,0l-7.4,7.4l0,0L482.3,524.5c-9.8,9.8-9.8,25.7,0,35.5c4.9,4.9,11.3,7.4,17.8,7.4c6.4,0,12.9-2.5,17.8-7.4l72.2-72.2l2.8,321.2c0.1,13.8,11.4,24.9,25.1,24.9c0.1,0,0.1,0,0.2,0c13.9-0.1,25-11.5,24.9-25.3l-2.9-334.4L725.9,560z"/></g>
</svg>